<mxfile host="app.diagrams.net" agent="Mozilla/5.0 (Macintosh; Intel Mac OS X 10_15_7) AppleWebKit/537.36 (KHTML, like Gecko) Chrome/128.0.0.0 Safari/537.36" version="26.2.10">
  <diagram name="Page-1" id="74e2e168-ea6b-b213-b513-2b3c1d86103e">
    <mxGraphModel dx="1354" dy="873" grid="1" gridSize="10" guides="1" tooltips="1" connect="1" arrows="1" fold="1" page="1" pageScale="1" pageWidth="1100" pageHeight="850" background="none" math="0" shadow="0">
      <root>
        <mxCell id="0" />
        <mxCell id="1" parent="0" />
        <mxCell id="77e6c97f196da883-1" value="strategy消息架构" style="swimlane;html=1;childLayout=stackLayout;startSize=20;rounded=0;shadow=0;labelBackgroundColor=none;strokeWidth=1;fontFamily=Verdana;fontSize=8;align=center;" parent="1" vertex="1">
          <mxGeometry x="230" y="40" width="640" height="750" as="geometry" />
        </mxCell>
        <mxCell id="77e6c97f196da883-3" value="strategy-data-center" style="swimlane;html=1;startSize=20;" parent="77e6c97f196da883-1" vertex="1">
          <mxGeometry y="20" width="160" height="730" as="geometry" />
        </mxCell>
        <mxCell id="DddXrHsZ-RXUBKqkZNDK-5" style="edgeStyle=orthogonalEdgeStyle;rounded=0;orthogonalLoop=1;jettySize=auto;html=1;exitX=0.5;exitY=1;exitDx=0;exitDy=0;" edge="1" parent="77e6c97f196da883-3" source="DddXrHsZ-RXUBKqkZNDK-2" target="DddXrHsZ-RXUBKqkZNDK-4">
          <mxGeometry relative="1" as="geometry" />
        </mxCell>
        <mxCell id="DddXrHsZ-RXUBKqkZNDK-2" value="产生信号" style="rounded=1;whiteSpace=wrap;html=1;" vertex="1" parent="77e6c97f196da883-3">
          <mxGeometry x="20" y="40" width="120" height="50" as="geometry" />
        </mxCell>
        <mxCell id="DddXrHsZ-RXUBKqkZNDK-4" value="redis-stream" style="shape=cylinder3;whiteSpace=wrap;html=1;boundedLbl=1;backgroundOutline=1;size=15;" vertex="1" parent="77e6c97f196da883-3">
          <mxGeometry x="50" y="130" width="60" height="80" as="geometry" />
        </mxCell>
        <mxCell id="77e6c97f196da883-4" value="strategy-center" style="swimlane;html=1;startSize=20;" parent="77e6c97f196da883-1" vertex="1">
          <mxGeometry x="160" y="20" width="160" height="730" as="geometry" />
        </mxCell>
        <mxCell id="DddXrHsZ-RXUBKqkZNDK-6" value="消费信号" style="rounded=1;whiteSpace=wrap;html=1;" vertex="1" parent="77e6c97f196da883-4">
          <mxGeometry x="20" y="140" width="120" height="60" as="geometry" />
        </mxCell>
        <mxCell id="DddXrHsZ-RXUBKqkZNDK-11" style="edgeStyle=orthogonalEdgeStyle;rounded=0;orthogonalLoop=1;jettySize=auto;html=1;exitX=0.5;exitY=1;exitDx=0;exitDy=0;" edge="1" parent="77e6c97f196da883-4" source="DddXrHsZ-RXUBKqkZNDK-8">
          <mxGeometry relative="1" as="geometry">
            <mxPoint x="80.28571428571445" y="360" as="targetPoint" />
          </mxGeometry>
        </mxCell>
        <mxCell id="DddXrHsZ-RXUBKqkZNDK-8" value="根据原始信号包装数据" style="rhombus;whiteSpace=wrap;html=1;" vertex="1" parent="77e6c97f196da883-4">
          <mxGeometry x="40" y="230" width="80" height="80" as="geometry" />
        </mxCell>
        <mxCell id="DddXrHsZ-RXUBKqkZNDK-12" style="edgeStyle=orthogonalEdgeStyle;rounded=0;orthogonalLoop=1;jettySize=auto;html=1;exitX=0.5;exitY=1;exitDx=0;exitDy=0;entryX=0.504;entryY=0.125;entryDx=0;entryDy=0;entryPerimeter=0;" edge="1" parent="77e6c97f196da883-4" source="DddXrHsZ-RXUBKqkZNDK-6" target="DddXrHsZ-RXUBKqkZNDK-8">
          <mxGeometry relative="1" as="geometry" />
        </mxCell>
        <mxCell id="DddXrHsZ-RXUBKqkZNDK-17" value="定义好的数据结构" style="rounded=1;whiteSpace=wrap;html=1;" vertex="1" parent="77e6c97f196da883-4">
          <mxGeometry x="20" y="370" width="120" height="60" as="geometry" />
        </mxCell>
        <mxCell id="77e6c97f196da883-5" value="mq" style="swimlane;html=1;startSize=20;" parent="77e6c97f196da883-1" vertex="1">
          <mxGeometry x="320" y="20" width="160" height="730" as="geometry" />
        </mxCell>
        <mxCell id="DddXrHsZ-RXUBKqkZNDK-1" value="" style="shape=cylinder3;whiteSpace=wrap;html=1;boundedLbl=1;backgroundOutline=1;size=15;" vertex="1" parent="77e6c97f196da883-5">
          <mxGeometry x="50" y="260" width="60" height="280" as="geometry" />
        </mxCell>
        <mxCell id="77e6c97f196da883-6" value="wss-server" style="swimlane;html=1;startSize=20;" parent="77e6c97f196da883-1" vertex="1">
          <mxGeometry x="480" y="20" width="160" height="730" as="geometry" />
        </mxCell>
        <mxCell id="DddXrHsZ-RXUBKqkZNDK-26" style="edgeStyle=orthogonalEdgeStyle;rounded=0;orthogonalLoop=1;jettySize=auto;html=1;exitX=0.5;exitY=1;exitDx=0;exitDy=0;entryX=0.5;entryY=0;entryDx=0;entryDy=0;" edge="1" parent="77e6c97f196da883-6" source="DddXrHsZ-RXUBKqkZNDK-23" target="DddXrHsZ-RXUBKqkZNDK-25">
          <mxGeometry relative="1" as="geometry" />
        </mxCell>
        <mxCell id="DddXrHsZ-RXUBKqkZNDK-23" value="用户鉴权" style="rounded=1;whiteSpace=wrap;html=1;" vertex="1" parent="77e6c97f196da883-6">
          <mxGeometry x="20" y="70" width="120" height="60" as="geometry" />
        </mxCell>
        <mxCell id="DddXrHsZ-RXUBKqkZNDK-33" style="edgeStyle=orthogonalEdgeStyle;rounded=0;orthogonalLoop=1;jettySize=auto;html=1;exitX=0.5;exitY=1;exitDx=0;exitDy=0;entryX=0.5;entryY=0;entryDx=0;entryDy=0;" edge="1" parent="77e6c97f196da883-6" source="DddXrHsZ-RXUBKqkZNDK-25" target="DddXrHsZ-RXUBKqkZNDK-30">
          <mxGeometry relative="1" as="geometry" />
        </mxCell>
        <mxCell id="DddXrHsZ-RXUBKqkZNDK-25" value="根据event-type订阅" style="rounded=1;whiteSpace=wrap;html=1;" vertex="1" parent="77e6c97f196da883-6">
          <mxGeometry x="20" y="170" width="120" height="60" as="geometry" />
        </mxCell>
        <mxCell id="DddXrHsZ-RXUBKqkZNDK-30" value="消费具体数据" style="rounded=1;whiteSpace=wrap;html=1;" vertex="1" parent="77e6c97f196da883-6">
          <mxGeometry x="20" y="320" width="120" height="60" as="geometry" />
        </mxCell>
        <mxCell id="DddXrHsZ-RXUBKqkZNDK-7" style="edgeStyle=orthogonalEdgeStyle;rounded=0;orthogonalLoop=1;jettySize=auto;html=1;exitX=1;exitY=0.5;exitDx=0;exitDy=0;exitPerimeter=0;entryX=0;entryY=0.5;entryDx=0;entryDy=0;" edge="1" parent="77e6c97f196da883-1" source="DddXrHsZ-RXUBKqkZNDK-4" target="DddXrHsZ-RXUBKqkZNDK-6">
          <mxGeometry relative="1" as="geometry" />
        </mxCell>
        <mxCell id="DddXrHsZ-RXUBKqkZNDK-18" style="edgeStyle=orthogonalEdgeStyle;rounded=0;orthogonalLoop=1;jettySize=auto;html=1;exitX=1;exitY=0.5;exitDx=0;exitDy=0;entryX=0;entryY=0.5;entryDx=0;entryDy=0;entryPerimeter=0;" edge="1" parent="77e6c97f196da883-1" source="DddXrHsZ-RXUBKqkZNDK-17" target="DddXrHsZ-RXUBKqkZNDK-1">
          <mxGeometry relative="1" as="geometry" />
        </mxCell>
        <mxCell id="DddXrHsZ-RXUBKqkZNDK-19" value="写入" style="edgeLabel;html=1;align=center;verticalAlign=middle;resizable=0;points=[];" vertex="1" connectable="0" parent="DddXrHsZ-RXUBKqkZNDK-18">
          <mxGeometry x="-0.0939" y="-1" relative="1" as="geometry">
            <mxPoint as="offset" />
          </mxGeometry>
        </mxCell>
        <mxCell id="DddXrHsZ-RXUBKqkZNDK-35" style="edgeStyle=orthogonalEdgeStyle;rounded=0;orthogonalLoop=1;jettySize=auto;html=1;exitX=1;exitY=0;exitDx=0;exitDy=77.5;exitPerimeter=0;entryX=0;entryY=0.5;entryDx=0;entryDy=0;" edge="1" parent="77e6c97f196da883-1" source="DddXrHsZ-RXUBKqkZNDK-1" target="DddXrHsZ-RXUBKqkZNDK-30">
          <mxGeometry relative="1" as="geometry">
            <Array as="points">
              <mxPoint x="430" y="370" />
            </Array>
          </mxGeometry>
        </mxCell>
        <mxCell id="DddXrHsZ-RXUBKqkZNDK-14" style="edgeStyle=orthogonalEdgeStyle;rounded=0;orthogonalLoop=1;jettySize=auto;html=1;exitX=1;exitY=0.5;exitDx=0;exitDy=0;exitPerimeter=0;entryX=0;entryY=0.5;entryDx=0;entryDy=0;" edge="1" parent="1" source="DddXrHsZ-RXUBKqkZNDK-9" target="DddXrHsZ-RXUBKqkZNDK-8">
          <mxGeometry relative="1" as="geometry" />
        </mxCell>
        <mxCell id="DddXrHsZ-RXUBKqkZNDK-9" value="user-center" style="shape=cylinder3;whiteSpace=wrap;html=1;boundedLbl=1;backgroundOutline=1;size=15;" vertex="1" parent="1">
          <mxGeometry x="80" y="290" width="60" height="80" as="geometry" />
        </mxCell>
        <mxCell id="DddXrHsZ-RXUBKqkZNDK-16" style="edgeStyle=orthogonalEdgeStyle;rounded=0;orthogonalLoop=1;jettySize=auto;html=1;exitX=1;exitY=0.5;exitDx=0;exitDy=0;exitPerimeter=0;" edge="1" parent="1" source="DddXrHsZ-RXUBKqkZNDK-10">
          <mxGeometry relative="1" as="geometry">
            <mxPoint x="290" y="340" as="targetPoint" />
          </mxGeometry>
        </mxCell>
        <mxCell id="DddXrHsZ-RXUBKqkZNDK-10" value="portal" style="shape=cylinder3;whiteSpace=wrap;html=1;boundedLbl=1;backgroundOutline=1;size=15;" vertex="1" parent="1">
          <mxGeometry x="80" y="375" width="60" height="80" as="geometry" />
        </mxCell>
        <mxCell id="DddXrHsZ-RXUBKqkZNDK-20" value="" style="endArrow=classic;html=1;rounded=0;entryX=0;entryY=0;entryDx=0;entryDy=202.5;entryPerimeter=0;" edge="1" parent="1" target="DddXrHsZ-RXUBKqkZNDK-1">
          <mxGeometry width="50" height="50" relative="1" as="geometry">
            <mxPoint x="440" y="523" as="sourcePoint" />
            <mxPoint x="500" y="440" as="targetPoint" />
          </mxGeometry>
        </mxCell>
        <mxCell id="DddXrHsZ-RXUBKqkZNDK-21" value="k线/swap等等" style="edgeLabel;html=1;align=center;verticalAlign=middle;resizable=0;points=[];" vertex="1" connectable="0" parent="DddXrHsZ-RXUBKqkZNDK-20">
          <mxGeometry x="-0.1036" y="-1" relative="1" as="geometry">
            <mxPoint as="offset" />
          </mxGeometry>
        </mxCell>
        <mxCell id="DddXrHsZ-RXUBKqkZNDK-24" style="edgeStyle=orthogonalEdgeStyle;rounded=0;orthogonalLoop=1;jettySize=auto;html=1;exitX=0;exitY=0.5;exitDx=0;exitDy=0;entryX=1;entryY=0.5;entryDx=0;entryDy=0;" edge="1" parent="1" source="DddXrHsZ-RXUBKqkZNDK-22" target="DddXrHsZ-RXUBKqkZNDK-23">
          <mxGeometry relative="1" as="geometry" />
        </mxCell>
        <mxCell id="DddXrHsZ-RXUBKqkZNDK-36" value="监听" style="edgeLabel;html=1;align=center;verticalAlign=middle;resizable=0;points=[];" vertex="1" connectable="0" parent="DddXrHsZ-RXUBKqkZNDK-24">
          <mxGeometry x="-0.12" relative="1" as="geometry">
            <mxPoint as="offset" />
          </mxGeometry>
        </mxCell>
        <mxCell id="DddXrHsZ-RXUBKqkZNDK-22" value="web" style="ellipse;whiteSpace=wrap;html=1;" vertex="1" parent="1">
          <mxGeometry x="950" y="120" width="120" height="80" as="geometry" />
        </mxCell>
        <mxCell id="DddXrHsZ-RXUBKqkZNDK-27" value="" style="endArrow=none;dashed=1;html=1;dashPattern=1 3;strokeWidth=2;rounded=0;" edge="1" parent="1">
          <mxGeometry width="50" height="50" relative="1" as="geometry">
            <mxPoint x="450" y="490" as="sourcePoint" />
            <mxPoint x="500" y="440" as="targetPoint" />
          </mxGeometry>
        </mxCell>
        <mxCell id="DddXrHsZ-RXUBKqkZNDK-31" style="edgeStyle=orthogonalEdgeStyle;rounded=0;orthogonalLoop=1;jettySize=auto;html=1;exitX=1;exitY=0.5;exitDx=0;exitDy=0;entryX=0.5;entryY=1;entryDx=0;entryDy=0;" edge="1" parent="1" source="DddXrHsZ-RXUBKqkZNDK-30" target="DddXrHsZ-RXUBKqkZNDK-22">
          <mxGeometry relative="1" as="geometry" />
        </mxCell>
        <mxCell id="DddXrHsZ-RXUBKqkZNDK-32" value="推送" style="edgeLabel;html=1;align=center;verticalAlign=middle;resizable=0;points=[];" vertex="1" connectable="0" parent="DddXrHsZ-RXUBKqkZNDK-31">
          <mxGeometry x="-0.4689" relative="1" as="geometry">
            <mxPoint as="offset" />
          </mxGeometry>
        </mxCell>
      </root>
    </mxGraphModel>
  </diagram>
</mxfile>
